<svg width="216" height="52" viewBox="0 0 216 52" fill="none" xmlns="http://www.w3.org/2000/svg">
<g clip-path="url(#clip0_3104_16194)">
<rect width="216" height="52" fill="white"/>
<path d="M26.334 51.66C23.342 51.66 20.438 51.33 17.622 50.67C14.806 49.966 12.254 48.734 9.966 46.974C7.722 45.214 5.94 42.772 4.62 39.648C3.3 36.524 2.64 32.52 2.64 27.636C2.64 23.104 3.3 19.298 4.62 16.218C5.94 13.138 7.7 10.674 9.9 8.826C12.1 6.978 14.498 5.658 17.094 4.866C19.734 4.03 22.374 3.612 25.014 3.612C27.258 3.612 29.436 3.788 31.548 4.14C33.704 4.492 35.266 4.888 36.234 5.328L43.56 11.334L37.62 20.904L26.334 15.096C23.21 15.096 20.57 16.13 18.414 18.198C16.258 20.222 15.18 23.368 15.18 27.636C15.18 30.672 15.708 33.136 16.764 35.028C17.864 36.92 19.36 38.306 21.252 39.186C23.144 40.066 25.3 40.506 27.72 40.506C30.272 40.506 32.45 40.308 34.254 39.912C36.058 39.472 37.642 38.966 39.006 38.394C40.37 37.778 41.668 37.184 42.9 36.612V47.7C41.36 48.668 39.314 49.57 36.762 50.406C34.21 51.242 30.734 51.66 26.334 51.66ZM49.8522 51L49.7862 14.832L48.4662 8.232L49.8522 4.272H61.7322V51H49.8522ZM75.5777 17.934L67.1957 9.486L75.5777 1.104L83.9597 9.486L75.5777 17.934ZM69.6377 51V29.154L68.2517 23.874L69.5717 19.848H81.5177V51H69.6377ZM87.5892 23.874L89.6352 19.848H99.4692V22.686L100.063 23.082C100.547 22.642 101.207 22.136 102.043 21.564C102.923 20.948 103.979 20.398 105.211 19.914C106.443 19.43 107.829 19.188 109.369 19.188C113.945 19.188 117.223 20.706 119.203 23.742C119.995 22.642 121.183 21.608 122.767 20.64C124.395 19.628 126.639 19.122 129.499 19.122C133.459 19.122 136.429 20.244 138.409 22.488C140.389 24.732 141.379 27.878 141.379 31.926V40.374L142.765 46.974L141.379 51H129.499V33.642C129.499 31.97 129.125 30.694 128.377 29.814C127.673 28.89 126.551 28.428 125.011 28.428C123.999 28.428 123.119 28.802 122.371 29.55C121.623 30.298 121.249 31.244 121.249 32.388V51H109.369V33.708C109.369 32.036 108.995 30.76 108.247 29.88C107.543 28.956 106.421 28.494 104.881 28.494L100.789 29.748V51H88.9092V31.134L87.5892 23.874ZM169.958 51.66C167.846 51.66 166.152 51.462 164.876 51.066C163.644 50.714 162.742 50.362 162.17 50.01C161.598 49.614 161.312 49.416 161.312 49.416V51.066H149.432V14.898L148.046 8.298L149.432 4.338H161.312V14.964L160.652 22.422L161.312 22.752C162.192 21.916 163.27 21.124 164.546 20.376C165.866 19.584 167.67 19.188 169.958 19.188C173.874 19.188 176.932 20.442 179.132 22.95C181.376 25.458 182.498 29.418 182.498 34.83C182.498 38.878 181.926 42.156 180.782 44.664C179.682 47.128 178.186 48.91 176.294 50.01C174.402 51.11 172.29 51.66 169.958 51.66ZM164.348 42.618C166.064 42.618 167.428 42.024 168.44 40.836C169.452 39.604 169.958 37.778 169.958 35.358C169.958 32.982 169.54 31.266 168.704 30.21C167.868 29.11 166.636 28.56 165.008 28.56L161.312 29.946V41.76C161.312 41.76 161.532 41.914 161.972 42.222C162.456 42.486 163.248 42.618 164.348 42.618ZM188.169 51V30.342L186.783 23.742L188.169 19.782H197.145L198.465 21.3C198.465 21.3 198.773 21.124 199.389 20.772C200.005 20.376 200.863 20.002 201.963 19.65C203.107 19.298 204.427 19.122 205.923 19.122C206.803 19.122 207.683 19.188 208.563 19.32C209.443 19.452 210.125 19.628 210.609 19.848L214.899 23.478L210.609 31.926L201.897 28.296L199.917 28.956V51H188.169Z" fill="#AE4C0C"/>
</g>
<defs>
<clipPath id="clip0_3104_16194">
<rect width="216" height="52" fill="white"/>
</clipPath>
</defs>
</svg>
